<svg viewBox="0 0 833 809" fill="none" xmlns="http://www.w3.org/2000/svg">
<path fill-rule="evenodd" clip-rule="evenodd" d="M295.726 1.01394C379.915 6.60494 458.224 36.9919 524 89.5949C540.296 102.627 570.254 132.271 582.846 147.823C625.446 200.438 653.415 259.463 666.972 325.36C669.944 339.811 670.235 339 662.09 339H655.18L650.614 344.25L646.049 349.5L646.013 346C645.978 342.544 644.9 341.681 560.526 277.5C513.528 241.75 475.054 212.05 475.029 211.5C474.909 208.828 464.511 187.989 459.672 180.72C452.902 170.551 442.862 160.775 435.825 157.498C430.677 155.102 429.786 155.02 409 155.02C388.24 155.02 387.317 155.105 382.199 157.487C379.284 158.844 374.169 162.553 370.832 165.727C359.855 176.173 352.308 188.504 343.575 210.268L338.07 223.987L303.896 260.743C285.101 280.96 269.157 298.112 268.465 298.86C267.433 299.977 266.346 298.551 262.383 290.879C253.089 272.883 241.022 259.587 228.332 253.361L222.5 250.5L195.105 250.19C167.923 249.883 167.685 249.862 164.551 247.471C157.54 242.124 156.56 242 121.238 242H88.412L82.999 245.25C72.811 251.368 69.092 263.918 74.375 274.352L76.75 279.044L70.384 291.614C64.366 303.498 55.757 327.416 54.365 336.117L53.744 340H32.461C13.126 340 10.666 340.196 5.589 342.139C2.515 343.315 0 344.665 0 345.139C0 345.612 11.756 346 26.125 346H52.25L51.625 349.125C51.281 350.844 51 352.869 51 353.625C51 354.703 48.769 355 40.678 355C31.05 355 29.973 355.207 24.678 358.075C21.555 359.766 19 361.566 19 362.075C19 362.601 25.479 363 34 363C47.055 363 49 363.207 49 364.593C49 365.469 48.484 371.62 47.853 378.262C46.838 388.959 46.352 390.909 43.603 395.331C40.884 399.705 40.5 401.212 40.5 407.5C40.5 413.893 40.864 415.261 43.831 420.035C46.626 424.532 47.311 426.85 48.089 434.447C48.599 439.426 49.296 445.637 49.637 448.25C50.252 452.959 50.233 453 47.379 453.007C40.944 453.021 35.013 459.732 35.013 467C35.013 475.449 40.116 480.237 49.933 481C56.021 481.473 56.407 481.655 57.137 484.401C57.72 486.594 57.431 487.908 55.954 489.786C53.263 493.206 53.418 498.509 56.292 501.383C58.118 503.209 58.504 504.51 58.192 507.783C57.876 511.098 58.262 512.353 60.192 514.283C62.122 516.213 62.508 517.468 62.192 520.783C61.627 526.707 65.048 530 71.766 530C76.004 530 76.907 530.383 78.842 533L81.06 536L66.28 536.007C53.486 536.012 51.116 536.266 48.641 537.898C39.699 543.793 39.699 556.207 48.641 562.102C51.39 563.914 55.054 563.987 143.5 563.987C231.946 563.987 235.61 563.914 238.359 562.102C242.804 559.171 244.986 555.106 244.993 549.741C244.999 545.447 245.614 544.176 251.278 536.741C254.73 532.208 259.749 524.246 262.43 519.047L267.304 509.594L271.95 514.647C274.505 517.426 290.524 534.648 307.548 552.918L338.5 586.136L342.079 595.318C353.693 625.119 367.719 644.771 382.175 651.502C387.323 653.898 388.219 653.981 409.09 653.99L430.681 654L436.783 650.951C448.855 644.918 463.046 626.44 471.69 605.5L475.405 596.5L560.129 532C643.021 468.895 644.868 467.415 645.546 463.561L646.24 459.623L650.71 464.811L655.18 470H662.09C670.041 470 669.665 469.216 667.439 481.14C655.75 543.762 626.732 606.324 585.405 658C572.373 674.296 542.729 704.254 527.177 716.846C480.385 754.731 427.451 781.583 371.499 795.815C344.686 802.635 322.217 806.235 295.393 808.008C283.495 808.795 284.044 808.832 302.5 808.495C401.341 806.686 499.966 763.86 573.058 691.009C632.607 631.657 672.426 555.361 686.446 473.75L687.091 470L732.795 469.986L778.5 469.972L784.25 464.903C789.769 460.038 790 459.639 790 454.964C790 449.406 788.523 450.225 806.25 445.955L816 443.606V430.917V418.227L820.75 417.576C831.158 416.148 830.776 416.395 832.048 410.269C833.306 404.209 832.046 394.265 829.849 392.906C829.222 392.519 825.849 391.896 822.354 391.521L816 390.841V378.117V365.394L806.25 363.045C788.32 358.726 790 359.753 790 353.11C790 347.394 789.931 347.255 785.071 343.157L780.141 339H733.616H687.091L686.446 335.25C665.67 214.311 589.597 108.527 480.32 48.6139C426.112 18.8939 362.197 1.60094 302.5 0.502939C283.481 0.153939 283.149 0.178939 295.726 1.01394ZM423.468 211.25C426.491 217.438 430.72 227.9 432.865 234.5C437.137 247.64 443.613 273.72 442.806 274.528C442.527 274.806 437.627 274.295 431.918 273.39C415.733 270.827 389.207 272.308 375.95 276.516C374.274 277.048 374.282 276.615 376.102 268.289C381.575 243.243 387.964 223.844 395.711 208.75L400.202 200H409.087H417.971L423.468 211.25ZM560.499 290.5L631.346 344.5L611.104 344.771L590.861 345.042L581.931 351.047L573 357.052V374.076V391.1L567.451 390.8L561.901 390.5L559.58 383.844C555.988 373.544 550.496 365.406 539.696 354.377C534.243 348.809 528.52 341.945 526.977 339.124C522.24 330.462 514.969 320.917 505.933 311.5L497.298 302.5L496.082 294.5C493.246 275.851 485.336 240.252 482.228 232.152C481.461 230.152 475.208 225.491 560.499 290.5ZM330.917 249.25C329.205 255.15 323.072 286.301 321.427 297.453L319.811 308.407L313.373 315.36C309.832 319.185 304.672 325.697 301.907 329.831C298.117 335.498 294.95 338.761 289.038 343.092L281.196 348.836L279.95 342.168C278.909 336.594 277.442 331.132 271.89 312.166C271.676 311.433 285 296.259 301.5 278.447C318 260.635 331.581 246.048 331.68 246.031C331.779 246.014 331.436 247.463 330.917 249.25ZM573 435.47V452.939L580.75 458.22L588.5 463.5L609.959 464L631.417 464.5L556.992 521.2C516.058 552.385 482.447 577.78 482.301 577.635C482.155 577.489 483.387 572.674 485.039 566.935C488.091 556.328 495.264 522.013 496.521 512C497.173 506.809 497.672 506.022 505.398 498C515.489 487.522 518.91 483.143 525.168 472.688C528.254 467.533 533.695 460.796 539.859 454.5C551.391 442.721 557.348 433.113 561.406 419.75C561.828 418.358 563.07 418 567.469 418H573V435.47ZM291.643 467.627C294.224 469.439 298.431 474.162 301.64 478.853C304.688 483.307 310 490 313.446 493.726L319.711 500.5L322.392 517.085C323.866 526.207 326.553 540.298 328.362 548.399L331.651 563.127L326.887 558.314C324.266 555.666 310.692 541.176 296.723 526.113L271.323 498.725L274.658 488.216C276.493 482.436 278.752 473.75 279.679 468.915L281.364 460.123L284.276 462.312C285.877 463.515 289.192 465.907 291.643 467.627ZM384.61 534.592C395.563 537.051 419.558 537.567 431.918 535.61C437.627 534.705 442.527 534.194 442.806 534.472C443.622 535.288 437.113 561.414 432.75 574.838C430.545 581.624 426.211 592.199 423.12 598.338L417.5 609.5H409.074H400.649L396.83 602.5C389.154 588.432 381.52 565.732 376.181 541.104C374.307 532.456 374.294 531.958 375.956 532.486C376.926 532.794 380.82 533.742 384.61 534.592Z"/>
</svg>
