<svg viewBox="0 0 39 39" fill="none" xmlns="http://www.w3.org/2000/svg">
<mask id="hole">
<circle r="15" cx="20" cy="20" fill="white"/>
<circle r="10.5" cx="20" cy="20" fill="black"/>
</mask>
<circle id="donut" r="30" cx="20" cy="20" mask="url(#hole)" fill="none"/>
<path d="M17.0771 0.0771637H22.0771V7.07716H17.0771V0.0771637Z" fill="none"/>
<path d="M32.0771 22.0772V17.0772H39.0771V22.0772H32.0771Z" fill="none"/>
<path d="M0.0771484 22.0772V17.0772H7.07715V22.0772H0.0771484Z" fill="none"/>
<path d="M17.0771 32.0772H22.0771V39.0772H17.0771V32.0772Z" fill="none"/>
<path d="M4.02082 7.55635L7.55635 4.02081L12.0325 8.49692L8.49692 12.0325L4.02082 7.55635Z" fill="none"/>
<path d="M30.7199 11.9699L27.1843 8.43437L31.5979 4.02082L35.1334 7.55635L30.7199 11.9699Z" fill="none"/>
<path d="M7.55635 35.1335L4.02082 31.598L8.87187 26.7469L12.4074 30.2825L7.55635 35.1335Z" fill="none"/>
<path d="M26.9969 30.5324L30.5324 26.9969L35.1336 31.598L31.598 35.1335L26.9969 30.5324Z" fill="none"/>
</svg>
