<svg width="570" height="512" viewBox="0 0 570 512" fill="none" xmlns="http://www.w3.org/2000/svg">
<path d="M505 256C505 393.519 393.519 505 256 505C118.481 505 7 393.519 7 256C7 118.481 118.481 7 256 7C393.519 7 505 118.481 505 256Z" fill="#334155" stroke="#D4D4D8" stroke-width="14"/>
<path d="M536.191 249.199L559.995 266.387L530.786 269.372L389.418 231.492L394.823 211.319L536.191 249.199Z" fill="#D4D4D8"/>
<path d="M384.896 251.902L393.004 221.642L378.867 217.854L370.759 248.114L372.942 254.104L387.079 257.892L384.896 251.902Z" fill="#D4D4D8"/>
<path d="M401.112 191.383L393.004 221.642L378.867 217.854L386.975 187.595L391.861 183.499L405.997 187.287L401.112 191.383Z" fill="#D4D4D8"/>
<path d="M377.516 222.898L380.218 212.811L327.205 198.606L324.503 208.693L377.516 222.898Z" fill="#D4D4D8"/>
<path d="M378.867 217.854L370.759 248.114L372.942 254.104L387.079 257.892L384.896 251.902L393.004 221.642M378.867 217.854L393.004 221.642M378.867 217.854L386.975 187.595L391.861 183.499L405.997 187.287L401.112 191.383L393.004 221.642M324.503 208.693L377.516 222.898L380.218 212.811L327.205 198.606M324.503 208.693L327.205 198.606M324.503 208.693L314.316 211.369L306.832 203.958L309.534 193.871L319.721 191.196L327.205 198.606M559.995 266.387L536.191 249.199L394.823 211.319L389.418 231.492L530.786 269.372L559.995 266.387Z" stroke="#D4D4D8"/>
<path d="M203.963 314.191L201.566 311.794H200.368L201.566 307.001L206.359 304.605L213.549 301.01C217.144 301.01 224.573 300.77 225.531 299.812C226.49 298.853 233.919 297.016 237.514 296.217L245.902 289.027L249.496 275.847L256.686 262.666L266.272 260.269L275.858 249.485L280.651 244.692L279.453 239.899L280.651 230.313L273.461 226.718L269.867 225.52L271.065 219.529L266.272 221.925L257.884 226.718L248.298 229.115L239.91 230.313L244.703 226.718L248.298 223.124C250.295 219.928 254.529 212.819 255.488 209.943C256.686 206.348 257.884 205.15 259.082 203.952C260.041 202.993 261.878 197.96 262.677 195.564L265.074 191.969H260.281L249.496 195.564L232.721 209.943L221.937 217.132L211.152 227.917L201.566 239.899H194.377L189.584 244.692L195.575 251.882H182.394L174.007 244.692V232.71L181.196 230.313L179.998 227.917V224.322L187.187 213.538L196.773 202.753L207.558 193.167H215.945L233.919 178.789L241.109 173.996L245.902 165.608L255.488 159.617L263.875 154.824L265.074 150.031L262.677 148.832L253.091 156.022L241.109 164.41L232.721 170.401H217.144L202.765 168.004L190.782 160.815L178.8 150.031H189.584L208.756 147.634L217.144 138.048L221.937 128.462L220.738 124.867L217.144 123.669L208.756 127.264L200.368 129.66L190.782 133.255L172.808 132.057L171.61 127.264C174.806 126.066 181.436 123.669 182.394 123.669C183.353 123.669 193.977 119.675 199.17 117.678L214.747 108.092C216.345 106.095 219.78 101.861 220.738 100.902C221.697 99.9437 233.919 94.911 239.91 92.5145L247.1 88.9198H233.919C227.928 89.3192 215.706 90.118 214.747 90.118C213.789 90.118 204.762 93.3134 200.368 94.911L193.778 91.3163L197.39 88.9198L199.17 87.7215C204.762 84.9256 216.185 79.0941 217.144 78.1355C218.102 77.1769 228.727 76.1385 233.919 75.739H278.254L291.435 70.946L303.418 72.1443L304.616 74.5408H320.193L329.779 79.3338L339.365 87.7215C340.963 89.3192 344.158 92.7542 344.158 93.7128C344.158 94.6714 346.555 101.302 347.753 104.497L345.356 120.074V122.471V132.057L342.96 136.85L335.77 147.634L324.986 156.022L320.193 158.418V163.211V173.996C320.193 174.954 326.584 179.188 329.779 181.185L344.158 199.159L365.727 205.15L375.313 209.943L370.52 217.132L363.33 220.727L342.96 217.132L340.563 219.529L330.977 223.124L333.374 251.882L332.176 257.873L340.563 265.062H351.348L359.735 262.666L372.916 263.864L399.278 279.441L419.648 293.82L429.234 307.001L430.432 316.587L425.639 321.38L417.251 330.966L402.872 338.156L389.692 345.345L387.295 352.535H378.907L353.744 372.905L328.581 396.87L311.805 417.24L307.012 434.016L305.814 450.791L297.426 451.989L289.039 447.196L283.047 434.016C280.651 430.421 275.618 422.992 274.66 422.033C273.701 421.075 274.26 414.444 274.66 411.249L277.056 402.861L307.012 382.491L321.391 368.112C324.587 363.718 331.217 354.931 332.176 354.931C333.134 354.931 334.971 345.345 335.77 340.552L339.365 332.164L336.969 323.777H327.383L317.797 316.587L301.021 314.191H293.832L273.461 327.371L251.893 347.742L236.316 356.129L230.324 357.328L221.937 356.129L217.144 348.94L203.963 356.129L191.98 360.922L179.998 363.319L164.421 369.31L158.429 372.905L145.249 388.482L138.059 404.059L130.87 416.042H126.077L120.085 410.051V401.663L123.68 387.284L129.671 372.905L139.257 356.129L146.447 350.138L160.826 348.94L176.403 339.354L189.584 327.371L203.963 318.984V314.191Z" fill="#D4D4D8" stroke="#D4D4D8"/>
<path d="M283.202 184.691L152.853 108.509L83.9259 226.444L111.01 329.71L125.762 325.841L155.267 318.103L214.276 302.626L228.787 277.798L283.202 184.691Z" fill="#D4D4D8" stroke="#D4D4D8"/>
</svg>
