<svg width="61" height="62" viewBox="0 0 61 62" fill="none" xmlns="http://www.w3.org/2000/svg">
<path d="M32.8209 9.14373V18.8655H31.3366V9.14373M32.8209 9.14373H31.3366M32.8209 9.14373L33.8104 7.63483L33.2332 5.90314H30.9243L30.347 7.63483L31.3366 9.14373M32.0787 52.0815L30.5944 47.2207V21.458H33.563V47.2207L32.0787 52.0815ZM36.5317 21.458L37.2738 22.1061V19.5136L36.5317 18.8655H32.0787H27.6258L26.8837 19.5136V22.1061L27.6258 21.458H32.0787H36.5317Z" stroke="#9BA8B8"/>
<rect width="10.3901" height="2.30892" transform="matrix(1 -1.97546e-08 1.97546e-08 -1 26.8837 21.4883)" fill="#9BA8B8"/>
<rect width="10.3901" height="2.30892" transform="matrix(-1.97546e-08 1 1 -1.97546e-08 30.9242 8.78925)" fill="#9BA8B8"/>
<path d="M8.43572 33.529H18.1575V32.0447H8.43572M8.43572 33.529V32.0447M8.43572 33.529L6.92682 34.5185L5.19513 33.9413V31.6323L6.92682 31.0551L8.43572 32.0447M51.3735 32.7868L46.5127 31.3025H20.75V34.2711H46.5127L51.3735 32.7868ZM20.75 37.2397L21.3981 37.9819H18.8056L18.1575 37.2397V32.7868V28.3339L18.8056 27.5917H21.3981L20.75 28.3339V32.7868V37.2397Z" stroke="#9BA8B8"/>
<rect x="20.7803" y="27.5917" width="10.3901" height="2.30892" transform="rotate(90 20.7803 27.5917)" fill="#9BA8B8"/>
<rect x="8.08118" y="31.6323" width="10.3901" height="2.30892" fill="#9BA8B8"/>
</svg>
