<svg width="10" height="39" viewBox="0 0 10 39" fill="none" xmlns="http://www.w3.org/2000/svg">
<path d="M4 34V7H6V34H4Z" fill="#9BA8B8"/>
<path fill-rule="evenodd" clip-rule="evenodd" d="M5 6C6.65685 6 8 4.65685 8 3C8 1.34315 6.65685 0 5 0C3.34315 0 2 1.34315 2 3C2 4.65685 3.34315 6 5 6ZM5 5C6.10457 5 7 4.10457 7 3C7 1.89543 6.10457 1 5 1C3.89543 1 3 1.89543 3 3C3 4.10457 3.89543 5 5 5Z" fill="#9BA8B8"/>
<path fill-rule="evenodd" clip-rule="evenodd" d="M0.100018 3C0.0344303 3.32311 0 3.65753 0 4C0 6.76142 2.23858 9 5 9C7.76142 9 10 6.76142 10 4C10 3.65753 9.96557 3.32311 9.89998 3C9.43671 5.28224 7.41896 7 5 7C2.58104 7 0.563288 5.28224 0.100018 3Z" fill="#9BA8B8"/>
<path d="M3.5 35L5 32L6.5 35L5 38.5L3.5 35Z" fill="#9BA8B8"/>
</svg>
