<?xml version="1.0" encoding="utf-8"?>
<!DOCTYPE svg PUBLIC "-//W3C//DTD SVG 1.1//EN" "http://www.w3.org/Graphics/SVG/1.1/DTD/svg11.dtd">
<svg version="1.1" xmlns="http://www.w3.org/2000/svg" xmlns:xlink="http://www.w3.org/1999/xlink" x="0px" y="0px" viewBox="0 0 1000 1000" enable-background="new 0 0 1000 1000" xml:space="preserve">
<g><path d="M974,602.1c0,2.1-0.2,3.6-0.6,4.5c-27.2,114-84.2,206.4-171,277.2C715.7,954.6,614,990,497.4,990c-62.1,0-122.2-11.7-180.2-35.1c-58.1-23.4-109.8-56.8-155.4-100.2L79.5,937c-8.1,8.1-17.7,12.1-28.7,12.1s-20.6-4-28.7-12.1C14,929,10,919.4,10,908.3V622.5c0-11.1,4-20.6,12.1-28.7c8.1-8.1,17.7-12.1,28.7-12.1h285.8c11.1,0,20.6,4,28.7,12.1c8.1,8.1,12.1,17.7,12.1,28.7c0,11.1-4,20.6-12.1,28.7L278,738.6c30.2,28.1,64.4,49.8,102.7,65.1c38.3,15.3,78.1,23,119.3,23c57,0,110.2-13.8,159.5-41.5c49.3-27.6,88.9-65.7,118.7-114.2c4.7-7.2,16-32.1,33.8-74.6c3.4-9.8,9.8-14.7,19.1-14.7h122.5c5.5,0,10.3,2,14.4,6.1C972,591.8,974,596.6,974,602.1L974,602.1z M990,91.7v285.8c0,11.1-4,20.6-12.1,28.7c-8.1,8.1-17.7,12.1-28.7,12.1H663.3c-11.1,0-20.6-4-28.7-12.1s-12.1-17.7-12.1-28.7c0-11.1,4-20.6,12.1-28.7l88-88c-63-58.3-137.2-87.4-222.7-87.4c-57,0-110.2,13.8-159.5,41.5c-49.3,27.6-88.9,65.7-118.7,114.2c-4.7,7.2-16,32.1-33.8,74.6c-3.4,9.8-9.8,14.7-19.1,14.7h-127c-5.5,0-10.3-2-14.4-6.1c-4-4-6.1-8.8-6.1-14.4v-4.5c27.6-114,85.1-206.4,172.3-277.2C280.9,45.4,383,10,500,10c62.1,0,122.5,11.8,181.2,35.4C739.9,69,792,102.3,837.5,145.3L920.5,63c8.1-8.1,17.7-12.1,28.7-12.1s20.6,4,28.7,12.1C986,71,990,80.6,990,91.7L990,91.7z"/></g>
</svg>